<?xml version="1.0" standalone="no"?>
<!DOCTYPE svg PUBLIC "-//W3C//DTD SVG 20010904//EN"
 "http://www.w3.org/TR/2001/REC-SVG-20010904/DTD/svg10.dtd">
<svg version="1.0" xmlns="http://www.w3.org/2000/svg"
 width="300.000000pt" height="56.000000pt" viewBox="0 0 300.000000 56.000000"
 preserveAspectRatio="xMidYMid meet">
<metadata>
Created by potrace 1.10, written by Peter Selinger 2001-2011
</metadata>
<g transform="translate(0.000000,56.000000) scale(0.050000,-0.050000)"
fill="white" stroke="none">
<path d="M1820 590 l0 -350 90 0 90 0 0 160 c0 146 4 162 49 191 96 63 131 14
131 -182 l0 -169 90 0 90 0 0 185 c0 281 -97 388 -290 318 -34 -13 -67 -23
-71 -23 -5 0 -6 49 -2 110 l7 110 -92 0 -92 0 0 -350z"/>
<path d="M4480 590 l0 -350 95 0 95 0 0 350 0 350 -95 0 -95 0 0 -350z"/>
<path d="M273 891 c-320 -114 -307 -544 19 -652 82 -27 211 -15 318 30 l70 29
0 141 0 141 -79 0 -79 0 -6 -95 c-10 -154 -210 -144 -275 13 -72 174 107 321
281 231 77 -40 201 29 154 86 -75 91 -262 126 -403 76z"/>
<path d="M3800 830 l0 -70 161 0 c190 0 239 -20 239 -97 0 -88 -32 -103 -224
-103 l-176 0 0 -160 0 -160 90 0 90 0 0 90 0 90 129 0 c216 0 337 152 263 329
-50 118 -129 151 -367 151 l-205 0 0 -70z"/>
<path d="M1408 857 c-5 -8 -3 -38 4 -66 10 -43 5 -51 -30 -51 -35 0 -42 -12
-42 -70 0 -57 8 -70 40 -70 36 0 40 -13 40 -137 0 -176 47 -231 200 -231 119
0 130 9 105 82 -13 39 -32 56 -62 56 -59 0 -82 42 -83 145 0 83 2 85 66 85 64
0 66 2 58 70 -7 62 -15 70 -66 70 -53 0 -58 6 -53 63 5 62 3 64 -81 67 -48 1
-91 -5 -96 -13z"/>
<path d="M877 740 c-91 -27 -97 -37 -61 -99 26 -45 40 -54 67 -39 49 26 165
22 193 -6 42 -42 26 -56 -63 -56 -215 0 -317 -124 -206 -252 60 -70 204 -80
274 -18 40 35 44 35 33 5 -11 -30 0 -35 77 -35 l89 0 0 161 c0 306 -136 420
-403 339z m223 -318 c0 -87 -144 -114 -156 -29 -6 45 20 60 111 65 32 1 45 -9
45 -36z"/>
<path d="M2587 723 c-309 -195 -34 -610 308 -466 122 52 44 167 -83 121 -81
-29 -172 -1 -172 54 0 28 24 31 180 25 l180 -7 0 75 c0 181 -250 300 -413 198z
m216 -116 c59 -53 44 -67 -73 -67 -118 0 -136 19 -66 69 57 40 94 39 139 -2z"/>
<path d="M3099 755 c0 -3 -2 -120 -5 -260 l-4 -255 95 0 95 0 0 159 c0 170 18
201 119 201 35 0 41 12 41 80 0 90 -28 102 -125 51 -48 -25 -55 -25 -55 0 0
24 -157 47 -161 24z"/>
<path d="M4845 739 c-72 -22 -76 -33 -41 -109 16 -36 33 -47 55 -38 97 41 221
30 221 -20 0 -19 -36 -30 -119 -36 -140 -10 -201 -53 -201 -140 0 -155 183
-227 305 -121 32 28 35 28 35 -2 0 -25 19 -33 80 -33 l80 0 0 190 c0 288 -141
392 -415 309z m231 -322 c-8 -59 -66 -93 -110 -65 -53 33 -54 66 -3 87 83 33
120 25 113 -22z"/>
<path d="M5380 500 l0 -260 89 0 89 0 6 164 c6 152 10 167 55 189 95 47 121 7
121 -184 l0 -169 95 0 95 0 -10 212 c-13 277 -150 400 -311 279 -50 -38 -69
-38 -69 -1 0 22 -22 30 -80 30 l-80 0 0 -260z"/>
</g>
</svg>
