<?xml version="1.0" standalone="no"?>
<!DOCTYPE svg PUBLIC "-//W3C//DTD SVG 20010904//EN"
 "http://www.w3.org/TR/2001/REC-SVG-20010904/DTD/svg10.dtd">
<svg version="1.0" xmlns="http://www.w3.org/2000/svg"
 width="300.000000pt" height="56.000000pt" viewBox="0 0 300.000000 56.000000"
 preserveAspectRatio="xMidYMid meet">
<metadata>
Created by potrace 1.10, written by Peter Selinger 2001-2011
</metadata>
<g transform="translate(0.000000,56.000000) scale(0.050000,-0.050000)"
fill="#4e5cdc" stroke="none">
<path d="M0 560 l0 -560 3000 0 3000 0 0 560 0 560 -3000 0 -3000 0 0 -560z
m1997 270 c-4 -61 -3 -110 2 -110 4 0 37 10 71 23 193 70 290 -37 290 -318 l0
-185 -90 0 -90 0 0 169 c0 196 -35 245 -131 182 -45 -29 -49 -45 -49 -191 l0
-160 -90 0 -90 0 0 350 0 350 92 0 92 0 -7 -110z m2673 -240 l0 -350 -95 0
-95 0 0 350 0 350 95 0 95 0 0 -350z m-4100 293 c127 -58 144 -91 72 -142 -57
-40 -64 -41 -120 -12 -174 90 -353 -57 -281 -231 65 -157 265 -167 275 -13 l6
95 79 0 79 0 0 -141 0 -141 -70 -29 c-287 -120 -570 30 -570 301 0 256 285
424 530 313z m3706 -24 c228 -138 113 -439 -167 -439 l-129 0 0 -90 0 -90 -90
0 -90 0 0 160 0 160 176 0 c192 0 224 15 224 103 0 77 -49 97 -239 97 l-161 0
0 70 0 70 205 0 c170 0 216 -7 271 -41z m-2691 -56 c-5 -57 0 -63 53 -63 51 0
59 -8 66 -70 8 -68 6 -70 -58 -70 -64 0 -66 -2 -66 -85 1 -103 24 -145 83
-145 30 0 49 -17 62 -56 25 -73 14 -82 -105 -82 -153 0 -200 55 -200 231 0
124 -4 137 -40 137 -32 0 -40 13 -40 70 0 58 7 70 42 70 35 0 40 8 30 51 -18
71 -6 82 92 79 84 -3 86 -5 81 -67z m-422 -74 c84 -44 117 -137 117 -328 l0
-161 -89 0 c-77 0 -88 5 -77 35 11 30 7 30 -33 -5 -70 -62 -214 -52 -274 18
-111 128 -9 252 206 252 89 0 105 14 63 56 -28 28 -144 32 -193 6 -40 -22
-118 86 -80 110 84 52 274 61 360 17z m1770 -56 c51 -55 67 -90 67 -148 l0
-75 -180 7 c-156 6 -180 3 -180 -25 0 -55 91 -83 172 -54 127 46 205 -69 83
-121 -219 -92 -435 30 -435 248 0 237 310 347 473 168z m327 58 c0 -25 7 -25
55 0 97 51 125 39 125 -51 0 -68 -6 -80 -41 -80 -101 0 -119 -31 -119 -201 l0
-159 -95 0 -95 0 4 255 c3 140 5 257 5 260 4 23 161 0 161 -24z m1943 -48 c54
-60 57 -73 57 -253 l0 -190 -80 0 c-61 0 -80 8 -80 33 0 30 -3 30 -35 2 -122
-106 -305 -34 -305 121 0 87 61 130 201 140 83 6 119 17 119 36 0 50 -124 61
-221 20 -30 -13 -79 55 -79 108 0 84 345 70 423 -17z m337 47 c0 -37 19 -37
69 1 161 121 298 -2 311 -279 l10 -212 -95 0 -95 0 0 169 c0 191 -26 231 -121
184 -45 -22 -49 -37 -55 -189 l-6 -164 -89 0 -89 0 0 260 0 260 80 0 c58 0 80
-8 80 -30z"/>
<path d="M974 446 c-54 -14 -36 -94 22 -103 56 -8 104 29 104 79 0 38 -42 46
-126 24z"/>
<path d="M2664 609 c-70 -50 -52 -69 66 -69 117 0 132 14 73 67 -45 41 -82 42
-139 2z"/>
<path d="M4963 439 c-51 -21 -50 -54 3 -87 44 -28 102 6 110 65 7 47 -30 55
-113 22z"/>
</g>
</svg>
